<svg xmlns="http://www.w3.org/2000/svg" version="1.0" preserveAspectRatio="xMidYMid meet" viewBox="228.12 271.57 330.88 77.33">

<g transform="translate(0.000000,600.000000) scale(0.100000,-0.100000)" fill="#000000" stroke="none">
<path d="M2675 3280 c-53 -6 -55 -7 -17 -8 38 -2 42 -4 43 -29 2 -28 2 -28 6 -3 7 36 20 41 99 35 72 -5 104 -12 104 -24 0 -4 17 -5 39 -3 31 3 42 0 54 -18 9 -12 13 -30 10 -39 -5 -15 -5 -15 8 0 8 9 21 19 29 22 10 4 8 6 -6 6 -11 1 -29 10 -39 21 -11 13 -31 20 -52 20 -19 0 -43 5 -53 10 -25 13 -148 19 -225 10z"/>
<path d="M2559 3247 c-31 -21 -34 -27 -35 -77 -1 -43 0 -46 3 -12 2 23 8 40 12 37 5 -2 8 3 7 12 0 9 14 27 33 40 19 13 29 23 24 23 -6 0 -25 -10 -44 -23z"/>
<path d="M2816 3161 c-38 -38 -75 -67 -82 -64 -7 2 -15 21 -17 41 l-4 37 -1 -36 c-1 -22 -11 -46 -26 -62 -22 -24 -22 -26 -5 -30 11 -3 23 -16 28 -29 7 -17 10 -18 10 -5 1 24 30 21 60 -5 21 -19 21 -17 -3 9 -34 37 -30 41 54 46 l55 3 -61 2 c-33 1 -64 5 -68 9 -3 4 26 40 66 80 40 40 70 73 67 73 -2 0 -35 -31 -73 -69z"/>
<path d="M3633 3210 c-88 -21 -135 -74 -141 -160 -8 -103 23 -145 144 -195 38 -16 77 -35 87 -43 21 -18 22 -65 2 -86 -24 -23 -93 -29 -163 -13 l-62 14 -9 -36 c-25 -94 -27 -87 26 -102 26 -8 89 -14 138 -14 73 0 98 4 130 22 105 56 143 163 93 263 -23 46 -48 62 -188 125 -40 18 -45 24 -48 57 -3 29 1 39 19 48 21 12 90 9 149 -5 22 -5 28 0 52 45 l26 51 -22 9 c-67 25 -173 35 -233 20z"/>
<path d="M2426 3146 c-61 -60 -96 -110 -96 -137 0 -6 -11 -24 -25 -41 -30 -36 -32 -76 -4 -112 19 -24 19 -27 5 -48 -9 -12 -15 -36 -15 -53 1 -28 2 -28 8 7 12 57 26 68 91 68 76 0 88 -14 93 -110 l3 -75 2 77 c2 60 6 79 18 86 26 15 10 62 -20 62 -13 0 -26 -7 -30 -15 -4 -11 -22 -15 -70 -15 -56 0 -67 3 -80 22 -23 32 -20 74 6 98 12 11 25 20 29 20 4 0 5 8 2 19 -7 26 18 69 66 114 23 21 41 43 41 48 0 5 15 18 33 29 17 11 26 20 19 20 -6 0 -41 -29 -76 -64z"/>
<path d="M3090 3199 c33 -13 90 -69 90 -88 0 -8 -8 -23 -17 -34 -13 -14 -14 -18 -3 -11 30 18 58 15 74 -8 9 -12 16 -17 16 -11 0 6 -13 22 -28 35 -15 13 -34 36 -42 52 -16 31 -76 76 -100 75 -8 0 -4 -5 10 -10z"/>
<path d="M2560 3186 c0 -2 8 -10 18 -17 15 -13 16 -12 3 4 -13 16 -21 21 -21 13z"/>
<path d="M2600 3156 c0 -2 8 -10 18 -17 15 -13 16 -12 3 4 -13 16 -21 21 -21 13z"/>
<path d="M2640 3126 c0 -2 8 -10 18 -17 15 -13 16 -12 3 4 -13 16 -21 21 -21 13z"/>
<path d="M2950 3084 c-11 -20 -11 -28 0 -49 11 -21 16 -23 34 -13 39 21 45 33 27 55 -26 32 -47 35 -61 7z"/>
<path d="M3082 3062 c-19 -17 -20 -20 -6 -40 17 -24 44 -28 62 -10 16 16 15 33 -4 52 -20 20 -26 20 -52 -2z"/>
<path d="M2498 3048 c-6 -17 12 -58 26 -58 21 0 32 15 31 40 0 19 -6 26 -26 28 -16 2 -29 -2 -31 -10z"/>
<path d="M2618 3043 c7 -3 16 -2 19 1 4 3 -2 6 -13 5 -11 0 -14 -3 -6 -6z"/>
<path d="M3972 2873 c3 -156 5 -171 27 -210 36 -62 87 -84 193 -84 46 0 103 6 128 14 l45 13 3 217 2 217 -70 0 -70 0 -2 -172 -3 -173 -39 1 c-69 3 -76 21 -76 195 l0 149 -71 0 -71 0 4 -167z"/>
<path d="M4435 2990 c-14 -27 -25 -52 -25 -55 0 -3 16 -5 35 -5 l35 0 0 -175 0 -175 65 0 65 0 0 148 c0 166 8 192 60 192 55 0 60 -16 60 -186 l0 -154 70 0 70 0 0 154 c0 170 5 186 60 186 55 0 60 -16 60 -186 l0 -154 71 0 71 0 -4 178 c-5 197 -13 227 -71 262 -57 35 -158 22 -197 -25 -12 -14 -16 -13 -42 12 -26 25 -36 28 -98 28 -52 0 -73 -4 -88 -18 -22 -20 -42 -16 -42 9 0 11 -15 14 -65 14 l-65 0 -25 -50z"/>
<path d="M5222 2978 l3 -61 53 -18 52 -18 0 25 c0 23 3 24 57 24 l57 0 -30 -32 c-187 -202 -194 -213 -194 -267 l0 -51 185 0 185 0 0 55 0 55 -95 0 c-52 0 -95 4 -95 9 0 5 43 61 95 126 91 112 95 119 95 166 l0 49 -185 0 -186 0 3 -62z"/>
<path d="M3247 3008 c-4 -15 1 -30 13 -43 11 -12 20 -26 20 -33 0 -6 4 -13 10 -17 14 -8 -9 52 -25 65 -7 6 -11 20 -8 30 3 11 3 20 0 20 -2 0 -7 -10 -10 -22z"/>
<path d="M2418 3003 c7 -3 16 -2 19 1 4 3 -2 6 -13 5 -11 0 -14 -3 -6 -6z"/>
<path d="M2435 2938 l-60 -63 63 60 c34 33 62 61 62 62 0 8 -10 -1 -65 -59z"/>
<path d="M3034 2978 l-19 -23 23 19 c12 11 22 21 22 23 0 8 -8 2 -26 -19z"/>
<path d="M2676 2955 c-6 -16 13 -55 27 -55 16 0 38 30 35 48 -4 23 -53 29 -62 7z"/>
<path d="M2830 2967 c0 -2 15 -16 33 -33 l32 -29 -29 33 c-28 30 -36 37 -36 29z"/>
<path d="M2984 2938 l-19 -23 23 19 c21 18 27 26 19 26 -2 0 -12 -10 -23 -22z"/>
<path d="M2912 2915 c-30 -22 -24 -59 11 -63 20 -2 27 1 27 13 0 9 4 13 10 10 5 -3 7 0 4 9 -3 8 -12 17 -20 20 -9 3 -12 10 -9 16 9 14 3 13 -23 -5z"/>
<path d="M2634 2904 c-18 -14 -18 -15 4 -4 12 6 22 13 22 15 0 8 -5 6 -26 -11z"/>
<path d="M2659 2883 c-13 -16 -12 -17 4 -4 9 7 17 15 17 17 0 8 -8 3 -21 -13z"/>
<path d="M2745 2880 c10 -11 20 -20 23 -20 3 0 -3 9 -13 20 -10 11 -20 20 -23 20 -3 0 3 -9 13 -20z"/>
<path d="M3282 2880 c0 -14 4 -36 8 -50 6 -20 8 -21 8 -5 0 11 -4 34 -8 50 -7 27 -8 27 -8 5z"/>
<path d="M2585 2880 c-16 -7 -17 -9 -3 -9 9 -1 20 4 23 9 7 11 7 11 -20 0z"/>
<path d="M3094 2872 c-19 -12 -23 -40 -9 -52 20 -17 54 -3 52 21 -2 23 -28 41 -43 31z"/>
<path d="M3235 2870 c-3 -5 -13 -6 -22 -3 -11 4 -14 3 -9 -5 4 -7 2 -12 -5 -12 -7 0 -10 -3 -7 -6 4 -3 23 4 45 15 21 11 30 20 21 21 -9 0 -19 -4 -23 -10z"/>
<path d="M2788 2853 c-27 -7 -22 -18 9 -20 16 0 21 2 13 7 -10 6 -9 9 1 13 17 6 1 7 -23 0z"/>
<path d="M3038 2853 c7 -3 16 -2 19 1 4 3 -2 6 -13 5 -11 0 -14 -3 -6 -6z"/>
<path d="M2591 2829 c-32 -13 -25 -53 10 -57 20 -2 28 2 32 19 8 30 -13 48 -42 38z"/>
<path d="M3022 2801 c-24 -15 -10 -54 19 -58 32 -4 44 19 26 47 -13 22 -25 24 -45 11z"/>
<path d="M2714 2775 c-4 -8 -10 -12 -15 -9 -5 3 -5 -5 0 -18 10 -27 52 -36 70 -14 10 12 8 19 -8 35 -25 25 -39 27 -47 6z"/>
<path d="M3291 2770 c-3 -58 -55 -109 -128 -124 -37 -8 -119 23 -129 48 -4 12 -12 4 -28 -26 -11 -24 -36 -53 -55 -65 -19 -13 -28 -23 -21 -23 15 0 85 68 92 90 4 13 7 13 24 -1 34 -29 88 -41 133 -29 70 19 131 88 118 137 -3 13 -5 11 -6 -7z"/>
<path d="M2808 2733 c7 -3 16 -2 19 1 4 3 -2 6 -13 5 -11 0 -14 -3 -6 -6z"/>
<path d="M2300 2712 c0 -5 9 -17 20 -27 11 -10 20 -29 20 -43 0 -14 14 -38 34 -58 27 -27 42 -34 74 -34 23 0 45 -6 52 -15 7 -8 17 -15 22 -15 6 0 0 8 -13 19 l-22 18 22 39 23 39 -25 -30 c-15 -16 -26 -33 -27 -37 0 -5 -16 -8 -36 -8 -42 0 -94 45 -94 80 0 12 -11 35 -25 52 -14 16 -25 25 -25 20z"/>
<path d="M2898 2713 c7 -3 16 -2 19 1 4 3 -2 6 -13 5 -11 0 -14 -3 -6 -6z"/>
<path d="M2948 2703 c7 -3 16 -2 19 1 4 3 -2 6 -13 5 -11 0 -14 -3 -6 -6z"/>
<path d="M2721 2673 c-1 -18 -7 -23 -28 -24 l-28 -1 25 -7 c25 -8 25 -8 -13 -26 -20 -11 -46 -34 -57 -51 -12 -21 -31 -37 -52 -43 -26 -7 -28 -9 -10 -10 20 -1 45 19 90 72 4 4 24 18 44 31 28 19 38 21 42 11 10 -26 83 -55 133 -54 l48 2 -55 6 c-80 9 -123 39 -133 91 -4 23 -4 23 -6 3z"/>
<path d="M2573 2633 c9 -2 25 -2 35 0 9 3 1 5 -18 5 -19 0 -27 -2 -17 -5z"/>
</g>
</svg>